<?xml version="1.0" encoding="UTF-8"?>
<svg xmlns="http://www.w3.org/2000/svg" xmlns:xlink="http://www.w3.org/1999/xlink" width="260.3" height="121.35" viewBox="0 0 260.3 121.35">
<defs>
<g>
<g id="glyph-0-0">
<path d="M 2.796875 0 L 0.046875 -7.09375 L 1.0625 -7.09375 L 2.90625 -1.9375 C 3.050781 -1.53125 3.175781 -1.144531 3.28125 -0.78125 C 3.382812 -1.164062 3.507812 -1.550781 3.65625 -1.9375 L 5.578125 -7.09375 L 6.53125 -7.09375 L 3.75 0 Z M 2.796875 0 "/>
</g>
<g id="glyph-0-1">
<path d="M 5.234375 -4.171875 L 0.546875 -4.171875 L 0.546875 -4.984375 L 5.234375 -4.984375 Z M 5.234375 -2.015625 L 0.546875 -2.015625 L 0.546875 -2.828125 L 5.234375 -2.828125 Z M 5.234375 -2.015625 "/>
</g>
<g id="glyph-0-2">
<path d="M 2.28125 -1.75 C 2.28125 -1.863281 2.28125 -1.945312 2.28125 -2 C 2.28125 -2.34375 2.328125 -2.640625 2.421875 -2.890625 C 2.492188 -3.078125 2.609375 -3.265625 2.765625 -3.453125 C 2.878906 -3.597656 3.085938 -3.800781 3.390625 -4.0625 C 3.691406 -4.332031 3.882812 -4.546875 3.96875 -4.703125 C 4.0625 -4.859375 4.109375 -5.03125 4.109375 -5.21875 C 4.109375 -5.5625 3.976562 -5.859375 3.71875 -6.109375 C 3.457031 -6.367188 3.132812 -6.5 2.75 -6.5 C 2.375 -6.5 2.0625 -6.378906 1.8125 -6.140625 C 1.570312 -5.910156 1.410156 -5.550781 1.328125 -5.0625 L 0.4375 -5.171875 C 0.519531 -5.828125 0.757812 -6.332031 1.15625 -6.6875 C 1.550781 -7.039062 2.078125 -7.21875 2.734375 -7.21875 C 3.421875 -7.21875 3.972656 -7.023438 4.390625 -6.640625 C 4.804688 -6.265625 5.015625 -5.8125 5.015625 -5.28125 C 5.015625 -4.96875 4.941406 -4.679688 4.796875 -4.421875 C 4.648438 -4.160156 4.363281 -3.84375 3.9375 -3.46875 C 3.65625 -3.21875 3.46875 -3.03125 3.375 -2.90625 C 3.289062 -2.789062 3.226562 -2.65625 3.1875 -2.5 C 3.144531 -2.34375 3.125 -2.09375 3.125 -1.75 Z M 2.234375 0 L 2.234375 -0.984375 L 3.21875 -0.984375 L 3.21875 0 Z M 2.234375 0 "/>
</g>
<g id="glyph-0-3">
<path d="M 0.921875 0 L 0.921875 -7.09375 L 1.859375 -7.09375 L 1.859375 0 Z M 0.921875 0 "/>
</g>
<g id="glyph-0-4">
<path d="M 0.78125 0 L 0.78125 -7.09375 L 3.921875 -7.09375 C 4.554688 -7.09375 5.035156 -7.023438 5.359375 -6.890625 C 5.691406 -6.765625 5.957031 -6.539062 6.15625 -6.21875 C 6.351562 -5.894531 6.453125 -5.539062 6.453125 -5.15625 C 6.453125 -4.65625 6.285156 -4.226562 5.953125 -3.875 C 5.628906 -3.53125 5.128906 -3.3125 4.453125 -3.21875 C 4.703125 -3.101562 4.890625 -2.988281 5.015625 -2.875 C 5.285156 -2.625 5.546875 -2.3125 5.796875 -1.9375 L 7.03125 0 L 5.84375 0 L 4.90625 -1.46875 C 4.632812 -1.894531 4.410156 -2.222656 4.234375 -2.453125 C 4.054688 -2.679688 3.894531 -2.835938 3.75 -2.921875 C 3.613281 -3.015625 3.472656 -3.078125 3.328125 -3.109375 C 3.222656 -3.140625 3.050781 -3.15625 2.8125 -3.15625 L 1.71875 -3.15625 L 1.71875 0 Z M 1.71875 -3.96875 L 3.734375 -3.96875 C 4.160156 -3.96875 4.492188 -4.007812 4.734375 -4.09375 C 4.984375 -4.1875 5.171875 -4.328125 5.296875 -4.515625 C 5.421875 -4.710938 5.484375 -4.925781 5.484375 -5.15625 C 5.484375 -5.488281 5.359375 -5.765625 5.109375 -5.984375 C 4.867188 -6.203125 4.488281 -6.3125 3.96875 -6.3125 L 1.71875 -6.3125 Z M 1.71875 -3.96875 "/>
</g>
<g id="glyph-0-5">
<path d="M 3.6875 0 L 2.8125 0 L 2.8125 -5.546875 C 2.601562 -5.347656 2.328125 -5.144531 1.984375 -4.9375 C 1.648438 -4.738281 1.347656 -4.59375 1.078125 -4.5 L 1.078125 -5.34375 C 1.566406 -5.570312 1.992188 -5.847656 2.359375 -6.171875 C 2.722656 -6.492188 2.976562 -6.8125 3.125 -7.125 L 3.6875 -7.125 Z M 3.6875 0 "/>
</g>
<g id="glyph-0-6">
<path d="M 0.90625 0 L 0.90625 -0.984375 L 1.890625 -0.984375 L 1.890625 0 Z M 0.90625 0 "/>
</g>
<g id="glyph-0-7">
<path d="M 0.40625 -3.5 C 0.40625 -4.332031 0.488281 -5.003906 0.65625 -5.515625 C 0.832031 -6.023438 1.09375 -6.421875 1.4375 -6.703125 C 1.78125 -6.984375 2.207031 -7.125 2.71875 -7.125 C 3.101562 -7.125 3.4375 -7.046875 3.71875 -6.890625 C 4.007812 -6.734375 4.25 -6.507812 4.4375 -6.21875 C 4.625 -5.9375 4.769531 -5.585938 4.875 -5.171875 C 4.976562 -4.753906 5.03125 -4.195312 5.03125 -3.5 C 5.03125 -2.664062 4.941406 -1.992188 4.765625 -1.484375 C 4.597656 -0.972656 4.34375 -0.578125 4 -0.296875 C 3.664062 -0.015625 3.238281 0.125 2.71875 0.125 C 2.039062 0.125 1.503906 -0.117188 1.109375 -0.609375 C 0.640625 -1.203125 0.40625 -2.164062 0.40625 -3.5 Z M 1.3125 -3.5 C 1.3125 -2.332031 1.445312 -1.554688 1.71875 -1.171875 C 1.988281 -0.785156 2.320312 -0.59375 2.71875 -0.59375 C 3.125 -0.59375 3.460938 -0.785156 3.734375 -1.171875 C 4.003906 -1.554688 4.140625 -2.332031 4.140625 -3.5 C 4.140625 -4.664062 4.003906 -5.441406 3.734375 -5.828125 C 3.460938 -6.210938 3.125 -6.40625 2.71875 -6.40625 C 2.3125 -6.40625 1.988281 -6.234375 1.75 -5.890625 C 1.457031 -5.460938 1.3125 -4.664062 1.3125 -3.5 Z M 1.3125 -3.5 "/>
</g>
<g id="glyph-0-8">
<path d="M 0.65625 0 L 0.65625 -7.09375 L 1.53125 -7.09375 L 1.53125 -3.046875 L 3.59375 -5.140625 L 4.71875 -5.140625 L 2.75 -3.234375 L 4.921875 0 L 3.84375 0 L 2.140625 -2.625 L 1.53125 -2.03125 L 1.53125 0 Z M 0.65625 0 "/>
</g>
<g id="glyph-0-9">
<path d="M 0.46875 -0.84375 L 2.015625 -0.84375 C 1.035156 -1.65625 0.546875 -2.648438 0.546875 -3.828125 C 0.546875 -4.472656 0.675781 -5.050781 0.9375 -5.5625 C 1.195312 -6.070312 1.5625 -6.472656 2.03125 -6.765625 C 2.5 -7.066406 3.0625 -7.21875 3.71875 -7.21875 C 4.375 -7.21875 4.921875 -7.082031 5.359375 -6.8125 C 5.796875 -6.539062 6.15625 -6.148438 6.4375 -5.640625 C 6.71875 -5.128906 6.859375 -4.523438 6.859375 -3.828125 C 6.859375 -2.648438 6.367188 -1.65625 5.390625 -0.84375 L 6.9375 -0.84375 L 6.9375 0 L 4.1875 0 L 4.1875 -0.78125 C 5.332031 -1.320312 5.90625 -2.289062 5.90625 -3.6875 C 5.90625 -4.476562 5.703125 -5.128906 5.296875 -5.640625 C 4.890625 -6.148438 4.363281 -6.40625 3.71875 -6.40625 C 3.050781 -6.40625 2.515625 -6.144531 2.109375 -5.625 C 1.710938 -5.113281 1.515625 -4.484375 1.515625 -3.734375 C 1.515625 -2.316406 2.085938 -1.332031 3.234375 -0.78125 L 3.234375 0 L 0.46875 0 Z M 0.46875 -0.84375 "/>
</g>
<g id="glyph-0-10">
<path d="M 0.875 0 L 0.875 -0.984375 L 1.875 -0.984375 L 1.875 0 C 1.875 0.363281 1.804688 0.65625 1.671875 0.875 C 1.546875 1.101562 1.34375 1.28125 1.0625 1.40625 L 0.828125 1.03125 C 1.003906 0.945312 1.132812 0.828125 1.21875 0.671875 C 1.3125 0.515625 1.363281 0.289062 1.375 0 Z M 0.875 0 "/>
</g>
<g id="glyph-0-11">
<path d="M 4.984375 -0.84375 L 4.984375 0 L 0.296875 0 C 0.296875 -0.207031 0.332031 -0.410156 0.40625 -0.609375 C 0.519531 -0.921875 0.707031 -1.234375 0.96875 -1.546875 C 1.238281 -1.859375 1.617188 -2.21875 2.109375 -2.625 C 2.878906 -3.25 3.398438 -3.742188 3.671875 -4.109375 C 3.941406 -4.484375 4.078125 -4.835938 4.078125 -5.171875 C 4.078125 -5.515625 3.953125 -5.804688 3.703125 -6.046875 C 3.460938 -6.285156 3.144531 -6.40625 2.75 -6.40625 C 2.332031 -6.40625 1.992188 -6.273438 1.734375 -6.015625 C 1.484375 -5.765625 1.359375 -5.421875 1.359375 -4.984375 L 0.46875 -5.0625 C 0.53125 -5.738281 0.757812 -6.25 1.15625 -6.59375 C 1.550781 -6.945312 2.085938 -7.125 2.765625 -7.125 C 3.441406 -7.125 3.976562 -6.929688 4.375 -6.546875 C 4.78125 -6.171875 4.984375 -5.707031 4.984375 -5.15625 C 4.984375 -4.863281 4.921875 -4.582031 4.796875 -4.3125 C 4.679688 -4.039062 4.488281 -3.753906 4.21875 -3.453125 C 3.957031 -3.148438 3.515625 -2.734375 2.890625 -2.203125 C 2.359375 -1.765625 2.019531 -1.46875 1.875 -1.3125 C 1.726562 -1.15625 1.609375 -1 1.515625 -0.84375 Z M 4.984375 -0.84375 "/>
</g>
<g id="glyph-0-12">
<path d="M 0.40625 -1.859375 L 1.328125 -1.9375 C 1.390625 -1.488281 1.546875 -1.148438 1.796875 -0.921875 C 2.046875 -0.703125 2.34375 -0.59375 2.6875 -0.59375 C 3.101562 -0.59375 3.457031 -0.75 3.75 -1.0625 C 4.039062 -1.382812 4.1875 -1.804688 4.1875 -2.328125 C 4.1875 -2.828125 4.046875 -3.21875 3.765625 -3.5 C 3.492188 -3.789062 3.128906 -3.9375 2.671875 -3.9375 C 2.390625 -3.9375 2.132812 -3.867188 1.90625 -3.734375 C 1.6875 -3.609375 1.515625 -3.445312 1.390625 -3.25 L 0.5625 -3.359375 L 1.25 -7 L 4.78125 -7 L 4.78125 -6.15625 L 1.953125 -6.15625 L 1.5625 -4.25 C 1.988281 -4.550781 2.4375 -4.703125 2.90625 -4.703125 C 3.519531 -4.703125 4.039062 -4.488281 4.46875 -4.0625 C 4.894531 -3.632812 5.109375 -3.082031 5.109375 -2.40625 C 5.109375 -1.757812 4.921875 -1.203125 4.546875 -0.734375 C 4.097656 -0.160156 3.476562 0.125 2.6875 0.125 C 2.039062 0.125 1.515625 -0.0546875 1.109375 -0.421875 C 0.703125 -0.785156 0.46875 -1.265625 0.40625 -1.859375 Z M 0.40625 -1.859375 "/>
</g>
<g id="glyph-0-13">
<path d="M 2 0 L 0.125 -7.09375 L 1.078125 -7.09375 L 2.15625 -2.4375 C 2.28125 -1.957031 2.382812 -1.472656 2.46875 -0.984375 C 2.644531 -1.742188 2.75 -2.179688 2.78125 -2.296875 L 4.125 -7.09375 L 5.265625 -7.09375 L 6.28125 -3.5 C 6.53125 -2.613281 6.710938 -1.773438 6.828125 -0.984375 C 6.921875 -1.429688 7.039062 -1.945312 7.1875 -2.53125 L 8.296875 -7.09375 L 9.234375 -7.09375 L 7.296875 0 L 6.390625 0 L 4.890625 -5.40625 C 4.765625 -5.851562 4.691406 -6.128906 4.671875 -6.234375 C 4.597656 -5.910156 4.53125 -5.632812 4.46875 -5.40625 L 2.953125 0 Z M 2 0 "/>
</g>
<g id="glyph-1-0">
<path d="M 1.796875 0 L 1.796875 -4.375 L 0.15625 -4.375 L 0.15625 -4.96875 L 4.09375 -4.96875 L 4.09375 -4.375 L 2.453125 -4.375 L 2.453125 0 Z M 1.796875 0 "/>
</g>
<g id="glyph-1-1">
<path d="M 0.453125 0 L 0.453125 -3.59375 L 1 -3.59375 L 1 -3.09375 C 1.113281 -3.269531 1.265625 -3.410156 1.453125 -3.515625 C 1.640625 -3.617188 1.851562 -3.671875 2.09375 -3.671875 C 2.363281 -3.671875 2.582031 -3.613281 2.75 -3.5 C 2.914062 -3.394531 3.035156 -3.242188 3.109375 -3.046875 C 3.390625 -3.460938 3.757812 -3.671875 4.21875 -3.671875 C 4.570312 -3.671875 4.84375 -3.570312 5.03125 -3.375 C 5.226562 -3.1875 5.328125 -2.882812 5.328125 -2.46875 L 5.328125 0 L 4.71875 0 L 4.71875 -2.265625 C 4.71875 -2.503906 4.695312 -2.675781 4.65625 -2.78125 C 4.625 -2.894531 4.554688 -2.984375 4.453125 -3.046875 C 4.347656 -3.117188 4.222656 -3.15625 4.078125 -3.15625 C 3.828125 -3.15625 3.617188 -3.066406 3.453125 -2.890625 C 3.285156 -2.722656 3.203125 -2.457031 3.203125 -2.09375 L 3.203125 0 L 2.59375 0 L 2.59375 -2.34375 C 2.59375 -2.613281 2.539062 -2.816406 2.4375 -2.953125 C 2.34375 -3.085938 2.179688 -3.15625 1.953125 -3.15625 C 1.785156 -3.15625 1.628906 -3.109375 1.484375 -3.015625 C 1.335938 -2.921875 1.226562 -2.785156 1.15625 -2.609375 C 1.09375 -2.441406 1.0625 -2.191406 1.0625 -1.859375 L 1.0625 0 Z M 0.453125 0 "/>
</g>
<g id="glyph-1-2">
<path d="M 2.8125 -0.4375 C 2.582031 -0.25 2.363281 -0.113281 2.15625 -0.03125 C 1.945312 0.0390625 1.722656 0.078125 1.484375 0.078125 C 1.085938 0.078125 0.78125 -0.015625 0.5625 -0.203125 C 0.351562 -0.398438 0.25 -0.648438 0.25 -0.953125 C 0.25 -1.128906 0.285156 -1.289062 0.359375 -1.4375 C 0.441406 -1.582031 0.546875 -1.695312 0.671875 -1.78125 C 0.804688 -1.863281 0.957031 -1.929688 1.125 -1.984375 C 1.238281 -2.015625 1.421875 -2.046875 1.671875 -2.078125 C 2.160156 -2.128906 2.519531 -2.195312 2.75 -2.28125 C 2.75 -2.363281 2.75 -2.414062 2.75 -2.4375 C 2.75 -2.6875 2.691406 -2.863281 2.578125 -2.96875 C 2.421875 -3.101562 2.191406 -3.171875 1.890625 -3.171875 C 1.597656 -3.171875 1.382812 -3.117188 1.25 -3.015625 C 1.113281 -2.921875 1.015625 -2.742188 0.953125 -2.484375 L 0.359375 -2.578125 C 0.410156 -2.828125 0.5 -3.03125 0.625 -3.1875 C 0.75 -3.34375 0.925781 -3.460938 1.15625 -3.546875 C 1.394531 -3.628906 1.671875 -3.671875 1.984375 -3.671875 C 2.285156 -3.671875 2.53125 -3.632812 2.71875 -3.5625 C 2.914062 -3.5 3.054688 -3.410156 3.140625 -3.296875 C 3.234375 -3.191406 3.300781 -3.050781 3.34375 -2.875 C 3.363281 -2.78125 3.375 -2.597656 3.375 -2.328125 L 3.375 -1.5 C 3.375 -0.9375 3.382812 -0.578125 3.40625 -0.421875 C 3.4375 -0.273438 3.488281 -0.132812 3.5625 0 L 2.921875 0 C 2.859375 -0.125 2.820312 -0.269531 2.8125 -0.4375 Z M 2.75 -1.8125 C 2.53125 -1.71875 2.203125 -1.640625 1.765625 -1.578125 C 1.503906 -1.535156 1.320312 -1.492188 1.21875 -1.453125 C 1.125 -1.410156 1.046875 -1.34375 0.984375 -1.25 C 0.929688 -1.164062 0.90625 -1.070312 0.90625 -0.96875 C 0.90625 -0.800781 0.960938 -0.660156 1.078125 -0.546875 C 1.203125 -0.441406 1.382812 -0.390625 1.625 -0.390625 C 1.863281 -0.390625 2.070312 -0.441406 2.25 -0.546875 C 2.4375 -0.648438 2.570312 -0.789062 2.65625 -0.96875 C 2.71875 -1.101562 2.75 -1.304688 2.75 -1.578125 Z M 2.75 -1.8125 "/>
</g>
<g id="glyph-1-3">
<path d="M 0.046875 0 L 1.359375 -1.875 L 0.15625 -3.59375 L 0.90625 -3.59375 L 1.46875 -2.75 C 1.570312 -2.59375 1.65625 -2.457031 1.71875 -2.34375 C 1.8125 -2.5 1.898438 -2.632812 1.984375 -2.75 L 2.59375 -3.59375 L 3.328125 -3.59375 L 2.078125 -1.90625 L 3.421875 0 L 2.671875 0 L 1.9375 -1.125 L 1.734375 -1.421875 L 0.796875 0 Z M 0.046875 0 "/>
</g>
<g id="glyph-1-4">
<path d="M 2.578125 0 L 1.96875 0 L 1.96875 -3.890625 C 1.820312 -3.742188 1.628906 -3.597656 1.390625 -3.453125 C 1.160156 -3.316406 0.945312 -3.21875 0.75 -3.15625 L 0.75 -3.734375 C 1.09375 -3.898438 1.390625 -4.097656 1.640625 -4.328125 C 1.898438 -4.554688 2.082031 -4.773438 2.1875 -4.984375 L 2.578125 -4.984375 Z M 2.578125 0 "/>
</g>
<g id="glyph-1-5">
<path d="M 3.5 -0.59375 L 3.5 0 L 0.203125 0 C 0.203125 -0.144531 0.226562 -0.285156 0.28125 -0.421875 C 0.363281 -0.648438 0.492188 -0.867188 0.671875 -1.078125 C 0.859375 -1.296875 1.128906 -1.550781 1.484375 -1.84375 C 2.023438 -2.28125 2.390625 -2.628906 2.578125 -2.890625 C 2.765625 -3.148438 2.859375 -3.394531 2.859375 -3.625 C 2.859375 -3.863281 2.769531 -4.066406 2.59375 -4.234375 C 2.425781 -4.398438 2.203125 -4.484375 1.921875 -4.484375 C 1.628906 -4.484375 1.394531 -4.394531 1.21875 -4.21875 C 1.039062 -4.039062 0.953125 -3.796875 0.953125 -3.484375 L 0.328125 -3.546875 C 0.367188 -4.015625 0.53125 -4.367188 0.8125 -4.609375 C 1.09375 -4.859375 1.46875 -4.984375 1.9375 -4.984375 C 2.414062 -4.984375 2.789062 -4.847656 3.0625 -4.578125 C 3.34375 -4.316406 3.484375 -3.992188 3.484375 -3.609375 C 3.484375 -3.410156 3.441406 -3.210938 3.359375 -3.015625 C 3.273438 -2.828125 3.140625 -2.625 2.953125 -2.40625 C 2.765625 -2.195312 2.453125 -1.910156 2.015625 -1.546875 C 1.648438 -1.234375 1.414062 -1.019531 1.3125 -0.90625 C 1.207031 -0.800781 1.125 -0.695312 1.0625 -0.59375 Z M 3.5 -0.59375 "/>
</g>
</g>
</defs>
<path fill="none" stroke-width="1.1457" stroke-linecap="butt" stroke-linejoin="miter" stroke="rgb(12.548828%, 12.940979%, 14.118958%)" stroke-opacity="1" stroke-miterlimit="10" d="M -0.000851669 -0.00105779 L -0.000851669 37.417051 M -0.000851669 47.623775 L -0.000851669 85.037956 L 17.007737 85.037956 M 17.007737 85.037956 L 68.599014 85.037956 M 95.810399 85.037956 L 167.811198 85.037956 M 195.022583 85.037956 L 232.440691 85.037956 L 232.440691 -0.00105779 L -0.000851669 -0.00105779 " transform="matrix(0.994672, 0, 0, -0.994672, 19.563347, 112.205979)"/>
<path fill="none" stroke-width="1.1457" stroke-linecap="butt" stroke-linejoin="miter" stroke="rgb(12.548828%, 12.940979%, 14.118958%)" stroke-opacity="1" stroke-miterlimit="10" d="M -0.000851669 44.203207 L -0.000851669 47.623775 M -0.000851669 40.837619 L -0.000851669 37.417051 " transform="matrix(0.994672, 0, 0, -0.994672, 19.563347, 112.205979)"/>
<path fill="none" stroke-width="2.2914" stroke-linecap="butt" stroke-linejoin="miter" stroke="rgb(12.548828%, 12.940979%, 14.118958%)" stroke-opacity="1" stroke-miterlimit="10" d="M -5.10225 44.203207 L 5.100547 44.203207 M -10.203648 40.837619 L 10.205872 40.837619 " transform="matrix(0.994672, 0, 0, -0.994672, 19.563347, 112.205979)"/>
<g fill="rgb(12.5%, 12.89978%, 14.099121%)" fill-opacity="1">
<use xlink:href="#glyph-0-0" x="32.656216" y="72.481758"/>
</g>
<g fill="rgb(12.5%, 12.89978%, 14.099121%)" fill-opacity="1">
<use xlink:href="#glyph-1-0" x="39.265813" y="74.033447"/>
</g>
<g fill="rgb(12.5%, 12.89978%, 14.099121%)" fill-opacity="1">
<use xlink:href="#glyph-0-1" x="46.751715" y="72.481758"/>
</g>
<g fill="rgb(12.5%, 12.89978%, 14.099121%)" fill-opacity="1">
<use xlink:href="#glyph-0-2" x="55.283812" y="72.481758"/>
</g>
<path fill-rule="nonzero" fill="rgb(12.548828%, 12.940979%, 14.118958%)" fill-opacity="1" stroke-width="1.1457" stroke-linecap="butt" stroke-linejoin="miter" stroke="rgb(12.548828%, 12.940979%, 14.118958%)" stroke-opacity="1" stroke-miterlimit="10" d="M 15.519338 85.037956 L 15.519338 83.33749 L 19.132337 85.037956 L 15.519338 86.738423 Z M 15.519338 85.037956 " transform="matrix(0.994672, 0, 0, -0.994672, 19.563347, 112.205979)"/>
<g fill="rgb(12.5%, 12.89978%, 14.099121%)" fill-opacity="1">
<use xlink:href="#glyph-0-3" x="19.901536" y="22.179199"/>
</g>
<g fill="rgb(12.5%, 12.89978%, 14.099121%)" fill-opacity="1">
<use xlink:href="#glyph-1-1" x="22.654788" y="23.665239"/>
<use xlink:href="#glyph-1-2" x="28.433013" y="23.665239"/>
<use xlink:href="#glyph-1-3" x="32.289787" y="23.665239"/>
</g>
<g fill="rgb(12.5%, 12.89978%, 14.099121%)" fill-opacity="1">
<use xlink:href="#glyph-0-1" x="39.007198" y="22.179199"/>
</g>
<g fill="rgb(12.5%, 12.89978%, 14.099121%)" fill-opacity="1">
<use xlink:href="#glyph-0-2" x="47.539295" y="22.179199"/>
</g>
<path fill="none" stroke-width="2.2914" stroke-linecap="butt" stroke-linejoin="miter" stroke="rgb(12.548828%, 12.940979%, 14.118958%)" stroke-opacity="1" stroke-miterlimit="10" d="M 68.599014 90.143282 L 95.810399 90.143282 L 95.810399 79.936558 L 68.599014 79.936558 Z M 68.599014 90.143282 " transform="matrix(0.994672, 0, 0, -0.994672, 19.563347, 112.205979)"/>
<g fill="rgb(12.5%, 12.89978%, 14.099121%)" fill-opacity="1">
<use xlink:href="#glyph-0-4" x="57.032646" y="18.182607"/>
</g>
<g fill="rgb(12.5%, 12.89978%, 14.099121%)" fill-opacity="1">
<use xlink:href="#glyph-1-4" x="64.188318" y="19.754189"/>
</g>
<g fill="rgb(12.5%, 12.89978%, 14.099121%)" fill-opacity="1">
<use xlink:href="#glyph-0-1" x="71.29525" y="18.182607"/>
</g>
<g fill="rgb(12.5%, 12.89978%, 14.099121%)" fill-opacity="1">
<use xlink:href="#glyph-0-5" x="79.827347" y="18.182607"/>
<use xlink:href="#glyph-0-6" x="85.337041" y="18.182607"/>
<use xlink:href="#glyph-0-7" x="88.091887" y="18.182607"/>
</g>
<g fill="rgb(12.5%, 12.89978%, 14.099121%)" fill-opacity="1">
<use xlink:href="#glyph-0-8" x="96.356428" y="18.182607"/>
<use xlink:href="#glyph-0-9" x="101.311188" y="18.182607"/>
<use xlink:href="#glyph-0-10" x="108.723509" y="18.182607"/>
</g>
<g fill="rgb(12.5%, 12.89978%, 14.099121%)" fill-opacity="1">
<use xlink:href="#glyph-0-7" x="114.233203" y="18.182607"/>
<use xlink:href="#glyph-0-6" x="119.742896" y="18.182607"/>
<use xlink:href="#glyph-0-11" x="122.497743" y="18.182607"/>
<use xlink:href="#glyph-0-12" x="128.007436" y="18.182607"/>
</g>
<g fill="rgb(12.5%, 12.89978%, 14.099121%)" fill-opacity="1">
<use xlink:href="#glyph-0-13" x="136.271976" y="18.182607"/>
</g>
<path fill="none" stroke-width="2.2914" stroke-linecap="butt" stroke-linejoin="miter" stroke="rgb(12.548828%, 12.940979%, 14.118958%)" stroke-opacity="1" stroke-miterlimit="10" d="M 167.811198 90.143282 L 195.022583 90.143282 L 195.022583 79.936558 L 167.811198 79.936558 Z M 167.811198 90.143282 " transform="matrix(0.994672, 0, 0, -0.994672, 19.563347, 112.205979)"/>
<g fill="rgb(12.5%, 12.89978%, 14.099121%)" fill-opacity="1">
<use xlink:href="#glyph-0-4" x="152.961811" y="18.182607"/>
</g>
<g fill="rgb(12.5%, 12.89978%, 14.099121%)" fill-opacity="1">
<use xlink:href="#glyph-1-5" x="160.117482" y="19.754189"/>
</g>
<g fill="rgb(12.5%, 12.89978%, 14.099121%)" fill-opacity="1">
<use xlink:href="#glyph-0-1" x="167.224414" y="18.182607"/>
</g>
<g fill="rgb(12.5%, 12.89978%, 14.099121%)" fill-opacity="1">
<use xlink:href="#glyph-0-5" x="175.756512" y="18.182607"/>
<use xlink:href="#glyph-0-6" x="181.266205" y="18.182607"/>
<use xlink:href="#glyph-0-12" x="184.021052" y="18.182607"/>
</g>
<g fill="rgb(12.5%, 12.89978%, 14.099121%)" fill-opacity="1">
<use xlink:href="#glyph-0-8" x="192.285592" y="18.182607"/>
<use xlink:href="#glyph-0-9" x="197.240352" y="18.182607"/>
<use xlink:href="#glyph-0-10" x="204.652674" y="18.182607"/>
</g>
<g fill="rgb(12.5%, 12.89978%, 14.099121%)" fill-opacity="1">
<use xlink:href="#glyph-0-7" x="210.162367" y="18.182607"/>
<use xlink:href="#glyph-0-6" x="215.67206" y="18.182607"/>
<use xlink:href="#glyph-0-5" x="218.426907" y="18.182607"/>
<use xlink:href="#glyph-0-11" x="223.936601" y="18.182607"/>
<use xlink:href="#glyph-0-12" x="229.446294" y="18.182607"/>
</g>
<g fill="rgb(12.5%, 12.89978%, 14.099121%)" fill-opacity="1">
<use xlink:href="#glyph-0-13" x="237.710834" y="18.182607"/>
</g>
</svg>
